<?xml version="1.0" encoding="UTF-8"?>
<svg id="Layer_1" xmlns="http://www.w3.org/2000/svg" version="1.1" xmlns:xlink="http://www.w3.org/1999/xlink" viewBox="0 0 999.2 267.9">
  <!-- Generator: Adobe Illustrator 30.6.0, SVG Export Plug-In . SVG Version: 2.1.4 Build 109)  -->
  <defs>
    <style>
      .st0 {
        fill: #fff;
      }

      .st1 {
        clip-path: url(#clippath);
      }
    </style>
    <clipPath id="clippath">
      <path id="SVGID1" data-name="SVGID" class="st0" d="M180.39,99.59c0,2.57,6.86,9.78,6.86,9.78,1.56-4.13,1.83-10.65,0-12.35-.51-.49-1.27-.7-2.1-.7-2.14,0-4.76,1.41-4.76,3.27"/>
    </clipPath>
  </defs>
  <path class="st0" d="M363.68,118.97h-12.94l-3.61-10.53h-24.07l-3.61,10.53h-12.84l21.13-58.46h14.75l21.22,58.46ZM335.13,73.79l-8.28,23.89h16.57l-8.28-23.89Z"/>
  <polygon class="st0" points="382.31 60.5 382.31 107.94 405.33 107.94 405.33 118.97 370.41 118.97 370.41 60.5 382.31 60.5"/>
  <rect class="st0" x="409.04" y="88.57" width="32.35" height="10.35"/>
  <path class="st0" d="M503.83,111.36c-6.1,5.85-13.52,8.77-22.25,8.77s-16.16-2.92-22.25-8.77c-6.03-5.96-9.06-13.17-9.06-21.63s3.03-15.69,9.06-21.55c6.09-5.89,13.5-8.85,22.25-8.85s16.16,2.95,22.25,8.85c6.09,5.86,9.13,13.03,9.13,21.55s-3.04,15.74-9.13,21.63M467.69,103.51c3.68,3.57,8.31,5.35,13.89,5.35s10.2-1.79,13.88-5.35c3.74-3.62,5.61-8.21,5.61-13.78s-1.87-10.15-5.61-13.78c-3.74-3.62-8.36-5.42-13.88-5.42s-10.15,1.8-13.89,5.42c-3.74,3.63-5.61,8.21-5.61,13.78s1.87,10.16,5.61,13.78"/>
  <path class="st0" d="M544.27,120.13c-6.73,0-12.25-1.83-16.56-5.5-4.32-3.67-6.47-8.61-6.47-14.79v-39.34h11.81v38.42c0,3.12.94,5.56,2.81,7.32,1.87,1.75,4.67,2.62,8.41,2.62s6.53-.87,8.41-2.62c1.87-1.76,2.8-4.2,2.8-7.32v-38.42h11.91v39.34c0,6.18-2.16,11.11-6.48,14.79-4.31,3.67-9.85,5.5-16.64,5.5"/>
  <polygon class="st0" points="590.84 60.5 590.84 107.94 613.87 107.94 613.87 118.97 578.94 118.97 578.94 60.5 590.84 60.5"/>
  <path class="st0" d="M674.93,118.97h-12.93l-3.61-10.53h-24.07l-3.62,10.53h-12.84l21.13-58.46h14.75l21.22,58.46ZM646.38,73.79l-8.27,23.89h16.56l-8.28-23.89Z"/>
  <polygon class="st0" points="750.05 60.5 762.29 60.5 762.29 118.97 750.48 118.97 750.48 81.06 733.49 108.19 732.11 108.19 715.11 81.14 715.11 118.97 703.21 118.97 703.21 60.5 715.46 60.5 732.79 88.14 750.05 60.5"/>
  <path class="st0" d="M825.16,111.36c-6.1,5.85-13.51,8.77-22.24,8.77s-16.16-2.92-22.26-8.77c-6.03-5.96-9.05-13.17-9.05-21.63s3.02-15.69,9.05-21.55c6.1-5.89,13.51-8.85,22.26-8.85s16.15,2.95,22.24,8.85c6.1,5.86,9.14,13.03,9.14,21.55s-3.04,15.74-9.14,21.63M789.02,103.51c3.69,3.57,8.32,5.35,13.9,5.35s10.19-1.79,13.87-5.35c3.74-3.62,5.61-8.21,5.61-13.78s-1.87-10.15-5.61-13.78c-3.73-3.62-8.35-5.42-13.87-5.42s-10.16,1.8-13.9,5.42c-3.73,3.63-5.61,8.21-5.61,13.78s1.87,10.16,5.61,13.78"/>
  <polygon class="st0" points="835.6 60.5 880.02 60.5 880.02 71.53 863.71 71.53 863.71 118.97 851.81 118.97 851.81 71.53 835.6 71.53 835.6 60.5"/>
  <path class="st0" d="M934.87,111.36c-6.1,5.85-13.51,8.77-22.25,8.77s-16.16-2.92-22.25-8.77c-6.03-5.96-9.05-13.17-9.05-21.63s3.02-15.69,9.05-21.55c6.09-5.89,13.51-8.85,22.25-8.85s16.16,2.95,22.25,8.85c6.09,5.86,9.13,13.03,9.13,21.55s-3.04,15.74-9.13,21.63M898.73,103.51c3.68,3.57,8.31,5.35,13.89,5.35s10.2-1.79,13.88-5.35c3.73-3.62,5.61-8.21,5.61-13.78s-1.87-10.15-5.61-13.78c-3.74-3.62-8.36-5.42-13.88-5.42s-10.15,1.8-13.89,5.42c-3.74,3.63-5.61,8.21-5.61,13.78s1.87,10.16,5.61,13.78"/>
  <path class="st0" d="M999.2,118.97h-12.85l-12.15-20.3h-9.06v20.3h-11.91v-58.46h24.14c5.59,0,10.32,1.9,14.24,5.69,3.9,3.79,5.86,8.35,5.86,13.69,0,3.62-1.06,6.97-3.19,10.06-2.13,3.09-4.95,5.41-8.46,6.98l13.37,22.04ZM977.38,71.28h-12.24v17.29h12.24c2.25,0,4.18-.84,5.78-2.55,1.61-1.69,2.41-3.74,2.41-6.13s-.8-4.43-2.41-6.1c-1.61-1.66-3.53-2.51-5.78-2.51"/>
  <path class="st0" d="M305.95,218.87l.72-8.2c2.04.61,4.04.92,5.99.92,2.68,0,4.63-.76,5.88-2.29,1.42-1.73,2.13-4.6,2.13-8.61v-37.57h9.75v37c0,13.01-6.08,19.51-18.27,19.51-2.16,0-4.23-.25-6.2-.76"/>
  <path class="st0" d="M338.33,218.46l.62-8.43c3.85.89,7.69,1.33,11.51,1.33,8.55,0,12.83-3.46,12.83-10.37v-1.18h-5.78c-13.22,0-19.82-6.04-19.82-18.1,0-5.54,1.56-10.09,4.69-13.64,3.52-3.97,8.49-5.95,14.92-5.95,5.81,0,10.96.9,15.46,2.69v26.88h7.21v8.12h-7.21v.16c0,5.79-1.8,10.38-5.38,13.79-4,3.81-9.92,5.72-17.76,5.72-3.71,0-7.46-.34-11.27-1.02M363.29,171.65c-1.88-.93-4.23-1.4-7.04-1.4s-4.87.99-6.46,2.97c-1.56,1.94-2.35,4.45-2.35,7.54,0,7.3,3.71,10.94,11.12,10.94h4.73v-20.05Z"/>
  <rect class="st0" x="378.88" y="191.69" width="21.77" height="8.12"/>
  <rect class="st0" x="399.83" y="191.69" width="21.77" height="8.12"/>
  <path class="st0" d="M420.77,191.7h10.36v-28.58h9.75v36.7h-20.11v-8.12ZM424.99,155.65c-.93-1.01-1.4-2.27-1.4-3.73s.47-2.74,1.4-3.78c.96-1.04,2.12-1.56,3.47-1.56s2.57.52,3.53,1.56c.95,1.02,1.41,2.28,1.41,3.78s-.46,2.69-1.41,3.73c-.96,1.04-2.14,1.56-3.53,1.56s-2.53-.52-3.47-1.56M437.27,155.65c-.94-1.01-1.41-2.27-1.41-3.73s.47-2.74,1.41-3.78c.96-1.04,2.12-1.56,3.46-1.56s2.53.52,3.46,1.56c.95,1.02,1.41,2.28,1.41,3.78s-.46,2.69-1.41,3.73c-.96,1.04-2.12,1.56-3.46,1.56s-2.53-.52-3.46-1.56"/>
  <path class="st0" d="M448.79,218.46l.61-8.43c3.86.89,7.7,1.33,11.52,1.33,8.54,0,12.82-3.46,12.82-10.37v-1.18h-5.78c-13.21,0-19.82-6.04-19.82-18.1,0-5.54,1.57-10.09,4.7-13.64,3.52-3.97,8.49-5.95,14.91-5.95,5.81,0,10.96.9,15.47,2.69v26.88h7.21v8.12h-7.21v.16c0,5.79-1.8,10.38-5.39,13.79-3.99,3.81-9.92,5.72-17.76,5.72-3.7,0-7.46-.34-11.26-1.02M473.74,171.65c-1.87-.93-4.23-1.4-7.03-1.4s-4.88.99-6.47,2.97c-1.56,1.94-2.34,4.45-2.34,7.54,0,7.3,3.7,10.94,11.12,10.94h4.72v-20.05Z"/>
  <rect class="st0" x="489.34" y="191.69" width="21.77" height="8.12"/>
  <path class="st0" d="M510.27,199.82v-8.12h4.23c1.7,0,3.08.19,4.11.54-2.75-2.12-4.11-5.84-4.11-11.17s1.59-9.68,4.77-13.19c3.52-3.83,8.33-5.75,14.43-5.75,11.15,0,16.73,5.98,16.73,17.95v19.74h-40.16ZM540.9,181.33c0-7.39-2.63-11.09-7.91-11.09-2.71,0-4.89.99-6.5,2.97-1.54,1.94-2.31,4.45-2.31,7.55,0,7.29,3.7,10.94,11.09,10.94h5.63v-10.37Z"/>
  <path class="st0" d="M629.33,199.82v-19.36c0-3.76-.61-6.39-1.8-7.92-1.21-1.52-3.34-2.28-6.4-2.28-1.64,0-3.26.14-4.87.46v29.11h-15.45c-9.66,0-16.69-2.06-21.12-6.21-4.03-3.73-6.03-9.37-6.03-16.89,0-4.47.63-8.56,1.91-12.27l10.44-1.8c-1.7,3.89-2.53,8.19-2.53,12.89,0,5.66,1.34,9.73,4.02,12.2,2.8,2.63,7.59,3.96,14.33,3.96h5.05v-28.09c4.58-1,9.52-1.48,14.84-1.48,6.21,0,10.68,1.54,13.43,4.61,2.43,2.75,3.65,6.95,3.65,12.62v12.35h12.92v-46.91h9.75v55.02h-32.13Z"/>
  <path class="st0" d="M670.92,218.46l.62-8.43c3.86.89,7.69,1.33,11.51,1.33,8.55,0,12.83-3.46,12.83-10.37v-1.18h-5.78c-13.22,0-19.82-6.04-19.82-18.1,0-5.54,1.56-10.09,4.69-13.64,3.53-3.97,8.49-5.95,14.91-5.95,5.81,0,10.96.9,15.46,2.69v35.15c0,5.79-1.8,10.38-5.38,13.79-4,3.81-9.92,5.72-17.76,5.72-3.7,0-7.47-.34-11.27-1.02M695.87,171.65c-1.88-.93-4.23-1.4-7.04-1.4s-4.88.99-6.46,2.97c-1.56,1.94-2.35,4.45-2.35,7.54,0,7.3,3.7,10.94,11.12,10.94h4.73v-20.05Z"/>
  <path class="st0" d="M710.39,149.4c1.58,0,2.84.1,3.74.3-.71-.58-1.07-1.53-1.07-2.82,0-2.16.82-3.93,2.49-5.33,1.86-1.53,4.44-2.29,7.77-2.29,1.87,0,3.33.16,4.36.46l-.87,5.3c-.86-.25-2.1-.38-3.71-.38-2.22,0-3.32.75-3.32,2.25,0,1.67,1.57,2.52,4.73,2.52h4.51v5.38h-18.62v-5.38ZM733.61,185.83h-9.9l-7.91-28.47h10.03l7.77,28.47ZM716.17,199.82v-8.12h22.85v-45.58h9.75v53.7h-32.6Z"/>
  <rect class="st0" x="761.27" y="144.79" width="9.75" height="55.02"/>
  <path class="st0" d="M814.34,199.82c-13.21,0-19.82-6.04-19.82-18.1,0-5.54,1.56-10.09,4.7-13.65,3.51-3.97,8.49-5.94,14.92-5.94,5.8,0,10.94.9,15.45,2.69v26.88h7.22v8.12h-22.46ZM803.54,155.65c-.94-1.01-1.4-2.27-1.4-3.73s.46-2.74,1.4-3.78c.96-1.04,2.12-1.56,3.47-1.56s2.57.52,3.54,1.56c.95,1.02,1.4,2.28,1.4,3.78s-.46,2.69-1.4,3.73c-.96,1.04-2.14,1.56-3.54,1.56s-2.53-.52-3.47-1.56M820.11,171.65c-1.87-.94-4.21-1.4-7.03-1.4s-4.87.99-6.46,2.97c-1.56,1.93-2.35,4.45-2.35,7.54,0,7.3,3.7,10.94,11.12,10.94h4.72v-20.05ZM815.82,155.65c-.94-1.01-1.41-2.27-1.41-3.73s.47-2.74,1.41-3.78c.96-1.04,2.12-1.56,3.46-1.56s2.53.52,3.46,1.56c.94,1.02,1.41,2.28,1.41,3.78s-.47,2.69-1.41,3.73c-.94,1.04-2.09,1.56-3.46,1.56s-2.53-.52-3.46-1.56"/>
  <path class="st0" d="M835.72,191.7h21.96c-.43-11.82-6.48-19.15-18.13-22.03v-7.54l29.32-19.36v10.22l-18.06,11.47c10.93,5.18,16.39,15.22,16.39,30.14v5.22h-31.48v-8.12Z"/>
  <path class="st0" d="M863.88,218.87l.72-8.2c2.04.61,4.04.92,5.99.92,2.68,0,4.63-.76,5.89-2.29,1.41-1.73,2.12-4.6,2.12-8.61v-37.57h9.75v28.57h7.27v8.12h-7.27v.31c0,13.01-6.08,19.51-18.26,19.51-2.17,0-4.24-.25-6.21-.76"/>
  <rect class="st0" x="894.47" y="191.69" width="21.77" height="8.12"/>
  <rect class="st0" x="915.41" y="191.69" width="21.76" height="8.12"/>
  <path class="st0" d="M936.35,191.7h3.7c2.45,0,4.15-.67,5.12-1.98,1.03-1.4,1.55-3.96,1.55-7.7v-14.22h9.74v14.45c0,3.76.31,6.31.91,7.66.7,1.59,2.09,2.39,4.19,2.39,3.95,0,5.93-3.33,5.93-9.98v-17.64h9.38v19.59c0,3.06.6,5.06,1.81,6.02,1.15.94,3.46,1.41,6.93,1.41h1.92c.36-2.92.54-6.05.54-9.38,0-7.19-.72-14.16-2.17-20.92l9.54-1.38c1.58,6.99,2.37,14.2,2.37,21.61,0,6.58-.37,12.64-1.12,18.18h-12.2c-4.03,0-7.01-.36-8.96-1.07-2.09-.78-3.67-2.22-4.72-4.31-1.76,3.99-5.47,5.99-11.16,5.99-5.28,0-8.55-2.02-9.83-6.07-1.52,3.65-4.8,5.46-9.85,5.46h-3.61v-8.12ZM962.24,155.65c-.95-1.01-1.4-2.27-1.4-3.73s.46-2.74,1.4-3.78c.96-1.04,2.12-1.56,3.46-1.56s2.53.52,3.46,1.56c.95,1.02,1.41,2.28,1.41,3.78s-.46,2.69-1.41,3.73c-.94,1.04-2.09,1.56-3.46,1.56s-2.53-.52-3.46-1.56M968.56,144.68c-.87-.95-1.3-2.11-1.3-3.48s.43-2.52,1.3-3.48c.88-.96,1.96-1.44,3.21-1.44s2.38.48,3.24,1.44c.89.95,1.35,2.11,1.35,3.48s-.46,2.52-1.35,3.48c-.86.96-1.94,1.44-3.24,1.44s-2.33-.48-3.21-1.44M974.44,155.65c-.94-1.01-1.41-2.27-1.41-3.73s.47-2.74,1.41-3.78c.96-1.04,2.14-1.56,3.53-1.56s2.53.52,3.47,1.56c.95,1.02,1.4,2.28,1.4,3.78s-.45,2.69-1.4,3.73c-.96,1.04-2.12,1.56-3.47,1.56s-2.57-.52-3.53-1.56"/>
  <g>
    <g>
      <path id="SVGID" class="st0" d="M180.39,99.59c0,2.57,6.86,9.78,6.86,9.78,1.56-4.13,1.83-10.65,0-12.35-.51-.49-1.27-.7-2.1-.7-2.14,0-4.76,1.41-4.76,3.27"/>
      <g class="st1">
        <polygon class="st0" points="185.75 92.12 195.46 104.37 183.73 113.58 174.02 101.33 185.75 92.12"/>
      </g>
    </g>
    <path class="st0" d="M230.58,206.62c2.92-2.64,4.65-5.71,5.93-9.08,1.84-4.85,2.89-9.87,3.23-15.03.28-4.36.57-8.74.58-13.11.06-23.16.06-46.32.01-69.48-.02-10.22-.19-20.43-.26-30.65,0-.54.2-1.52.38-1.53.65-.06,1.53-.02,1.97.38,1.43,1.29,2.7,2.75,4.03,4.14.25.27.5.54,1.02,1.09-.86-5.13-1.65-9.87-2.44-14.62.11-.05.22-.1.33-.16,1.41,2.04,2.95,4,4.2,6.13,2.24,3.82,4.5,7.66,6.42,11.65,4.32,9,7.72,18.34,9.64,28.16.98,5.05,2.12,10.1,2.57,15.2.56,6.4.78,12.85.59,19.27-.16,5.68-.98,11.35-1.69,17-1.03,8.29-3.36,16.27-6.2,24.09-3.16,8.72-7.13,17.08-12.25,24.82-3.45,5.22-7.08,10.37-11.12,15.15-3.95,4.68-8.46,8.9-12.85,13.2-5.2,5.1-11.09,9.36-17.18,13.32-6.5,4.22-13.37,7.73-20.49,10.8-7.02,3.03-14.25,5.37-21.68,7.06-4.09.93-8.25,1.5-12.39,2.23-8.72,1.55-17.54,1.28-26.32,1.1-4.09-.08-8.18-.87-12.26-1.38-8.9-1.11-17.49-3.46-25.9-6.47-8.26-2.95-16.09-6.76-23.62-11.26-6.08-3.63-11.81-7.73-17.18-12.29-4.15-3.53-7.93-7.49-11.78-11.36-5.83-5.86-10.66-12.5-15.11-19.43-4.79-7.45-8.72-15.33-11.92-23.57-3.03-7.81-5.27-15.86-6.75-24.1-.73-4.08-1.19-8.22-1.49-12.35-.37-5.04-.7-10.12-.55-15.16.15-5.11.81-10.21,1.4-15.3,1.07-9.36,3.5-18.4,6.79-27.2,1.43-3.82,3.05-7.59,4.76-11.3,2.8-6.09,6.04-11.96,9.97-17.41,3.08-4.26,6.26-8.46,9.65-12.48,2.92-3.46,6.04-6.79,9.34-9.9,6.73-6.36,13.98-12.1,21.99-16.8,4.58-2.69,9.24-5.29,14.04-7.56,8.43-3.99,17.2-7.09,26.37-8.93,4.77-.96,9.56-1.88,14.38-2.59,2.98-.44,6.01-.48,9.03-.63,2.88-.15,5.78-.42,8.64-.26,5.67.33,11.33.81,16.98,1.43,9.2,1.01,18.1,3.37,26.8,6.46,8.63,3.06,16.93,6.88,24.62,11.85,5.18,3.35,10.28,6.88,15.11,10.71,3.85,3.05,7.33,6.6,10.76,10.13.74.77.72,2.44.73,3.7.14,16.58.22,33.16.33,49.74.08,12.12.2,24.25.29,36.37.1,13.5.23,26.99.28,40.49.02,4.44-.14,8.88-.29,13.31-.14,4.03-.33,8.06-.6,12.08-.21,3.13-.57,6.26-.86,9.39-.02.19.02.39.06.9ZM53.84,184.25c.11,0,.21,0,.32,0,.87-2.39,1.79-4.75,2.59-7.16,3.4-10.31,6.62-20.65,8.47-31.39.93-5.4,1.64-10.76.81-16.21-.66-4.28-1.19-8.59-2.18-12.79-2.13-9-5.06-17.75-9.67-25.83-1.42-2.5-3.07-4.87-4.72-7.47-4.8,7.72-8.85,15.43-12.53,23.36-3.59,7.73-6.68,15.64-9.27,23.75-3.41,10.64-5.67,21.51-6.18,32.66-.22,4.79.06,9.65.61,14.42.6,5.29,1.96,10.47,4.06,15.41,3.25,7.63,7.61,14.48,13.81,20.13,4.41,4.02,9.33,7.15,14.78,9.57,6.35,2.81,13.05,4.24,19.92,4.63,6.77.39,13.52-.15,20.22-1.38,7.87-1.44,15.41-3.88,22.67-7.19,4.49-2.05,8.76-4.51,12.64-7.6,3.14-2.5,5.79-5.45,7.98-8.8,2.88-4.39,4.14-9.21,3.34-14.42-.27-1.77-.73-3.64-1.6-5.18-2.28-4.04-5.92-6.41-10.41-7.48-1.47-.35-2.95-.64-4.58-.99,1.23-.95,2.33-1.73,3.34-2.6,3.33-2.87,4.77-6.85,6.19-10.81,2.2-6.16,2.6-12.64,2.94-19.08.28-5.26.25-10.54.32-15.81.04-3.13-.04-6.27.03-9.4.05-2.06.27-4.11.43-6.43,8.03,8.59,15.9,17,23.82,25.47-4.61,3.46-9.01,6.77-13.41,10.08.11.17.23.34.34.51,4.86-2.97,9.71-5.95,14.74-9.03.21.26.47.62.77.95,3.55,3.93,7.16,7.82,10.65,11.81,3.09,3.53,6.18,7.09,9.05,10.79,6.55,8.45,11.47,17.79,14.89,27.92.36,1.05.82,2.07,1.39,3.5.35-.89.62-1.35.71-1.85.34-1.89.63-3.79.91-5.69.72-4.96.49-9.91-1.24-14.6-1.15-3.13-2.66-6.22-4.52-8.98-4.06-6.04-8.32-11.95-12.74-17.73-2.65-3.46-5.75-6.58-8.63-9.86-.85-.97-1.63-2.01-2.45-3.01.19.12.38.25.57.37,4.88-5.28,9.77-10.56,14.6-15.79,1.65,1.31,3,2.38,4.46,3.54.73-1.95.95-3.69-.03-5.32-1.48-2.47-1.45-4.95-.79-7.67.78-3.22,1.43-6.51.72-9.88-.69-3.3-3.48-6.08-7.48-3.85-3.12,1.74-5.21,4.48-6.89,7.47-.55.99-.53,2.63-.13,3.74,1.46,4.14,4.52,7.19,7.6,10.41-1.17,1.35-2.34,2.89-3.7,4.24-3.29,3.28-6.68,6.46-10,9.72-.65.64-1.11.64-1.68-.03-.75-.89-1.54-1.75-2.32-2.61-3.09-3.38-6.19-6.74-9.27-10.12-4.51-4.97-9.01-9.95-13.52-14.92-1.99-2.2-4.09-4.32-5.96-6.61-.67-.83-1.09-2.06-1.17-3.14-.31-4.12-.44-8.25-.63-12.37-.21-4.52-.39-9.04-.6-13.55-.02-.43-.11-.86-.14-1.3-.17-2.68-.33-5.36-.49-8.05.12-.06.24-.11.36-.17,2.4,2.03,4.81,4.07,7.29,6.17,0-.53.09-.94-.01-1.3-1.43-4.93-2.9-9.85-4.32-14.78-1.8-6.22-3.56-12.46-5.35-18.68-.5-1.73-1.53-3.09-3.06-4.09-.86-.56-1.5-.56-1.96.42-.69,1.48-1.49,2.92-2.02,4.45-.56,1.61-1.28,3.33-1.19,4.97.24,4.28,1.07,8.52,1.32,12.8.37,6.27.46,12.56.62,18.84.14,5.37.21,10.74.3,16.1,0,.3-.09.6-.17,1.09-.32-.28-.5-.4-.64-.56-1.83-2.13-3.65-4.28-5.49-6.41-3.04-3.53-6.14-7-9.1-10.59-1.07-1.29-2.37-2.54-2.5-4.46,3.83-1.02,6.61,1.76,10.2,2.52-8.26-10.72-17.29-20.15-29.15-27.04-.22,2.57-.41,4.83-.6,7.08-.13,1.5-.09,3.03-.43,4.48-.27,1.17,0,1.95.77,2.74.71.73,1.49,1.43,2.02,2.29,1.48,2.37,2.69,4.91,4.29,7.2,4.61,6.59,9.21,13.21,14.1,19.59,4.88,6.37,10.09,12.48,15.17,18.7,1.32,1.61,2.65,3.17,2.72,5.42.16,5.45.38,10.9.58,16.34.09,2.48.2,4.96.29,7.44.2,5.64.4,11.29.59,16.93.16,4.77.31,9.54.42,14.32.03,1.38-.23,2.8-1.42,3.62-1.41.97-2.92,1.97-4.54,2.43-7.36,2.07-14.78,3.97-22.18,5.91-1.41.37-2.63.93-3.33,2.3-1.53,2.96-3.09,5.91-4.61,8.87-.93,1.81-.92,1.9,1.05,2.44,10.17,2.77,20.36,5.49,30.53,8.25,1.83.5,3.54,1.25,4.76,2.98-1.3,1.17-2.49,2.39-3.83,3.44-5,3.92-10.37,7.22-16.28,9.65-7.74,3.17-15.83,4.64-24.15,4.96-2.24.08-4.5-.02-6.72-.29-4.89-.59-9.84-1.01-14.62-2.11-7.84-1.8-14.63-5.6-20.11-11.65-3.59-3.96-6.32-8.38-8.37-13.28-3.2-7.66-4.59-15.7-4.96-23.91-.25-5.63-.1-11.28.85-16.87.74-4.41,1.36-8.84,2.28-13.21,1.58-7.53,4.03-14.82,6.9-21.96,1.08-2.7,2.34-5.32,3.52-7.98.16.02.32.03.47.05.5,1.68,1.02,3.35,1.49,5.03,2.56,9.31,3.84,18.84,4.97,28.39.6,5.09.93,10.23,1.19,15.35.24,4.58.28,9.17.31,13.75.05,6.66.01,13.32.01,19.98v1.57ZM47.03,232.35c.36.4.56.76.87.96,3.09,1.96,6.09,4.11,9.33,5.8,5.05,2.63,10.43,4.54,16.06,5.57,4.13.76,8.3,1.37,12.48,1.74,3.08.27,6.22.19,9.32.02,5.19-.28,10.45-.34,15.54-1.26,6.9-1.24,13.74-2.96,20.48-4.92,8.4-2.43,16.19-6.3,23.25-11.48,4.09-3,8.14-6.07,12.03-9.32,3.55-2.96,6.97-6.1,10.21-9.39,1.67-1.69,3.13-3.73,4.18-5.86,3.12-6.34,4.49-13.03,3.87-20.16-.3-3.48-.82-6.87-1.84-10.2-1.64-5.38-4.6-10.02-8.58-13.89-2.61-2.53-5.66-4.71-8.76-6.64-3.42-2.12-7.31-2.77-11.11-.99-2.19,1.03-4.17,2.55-6.13,4.01-2.85,2.12-4.8,5.01-6.18,8.23-1.76,4.1-2.49,8.36-1.82,12.85.58,3.9,2.44,6.75,6.16,8.2,3.58,1.39,7.29,1.46,11.12,1.27,5.87-.3,11.83-.41,17.29,2.33,1.75.88,3.39,2.06,4.91,3.3,1.06.87.86,1.74-.19,2.57-3.9,3.09-7.76,6.25-11.71,9.28-4.67,3.59-9.36,7.16-14.14,10.59-6.85,4.91-14.21,9.01-21.98,12.25-4.88,2.03-9.88,3.85-14.97,5.28-5.37,1.51-10.86,2.61-16.36,3.58-4.24.74-8.55,1.32-12.84,1.4-6.05.11-12.13-.12-18.17-.58-4.03-.3-8.03-1.12-11.99-1.93-3.42-.7-6.78-1.71-10.33-2.63ZM210.5,31.54c-2.56,2.22-4.22,4.75-5.33,7.62-.59,1.52-1.43,2.92-1.03,4.81.59,2.77.84,5.64.97,8.48.22,4.87.24,9.75.33,14.63.11,6.2.2,12.4.3,18.6.09,5.76.2,11.52.29,17.28.11,7.08.23,14.16.28,21.24.02,2.18-.22,4.37-.27,6.56-.12,5.51-.22,11.03-.3,16.54-.11,7.47-.19,14.95-.3,22.42-.09,5.96-.11,11.91-.35,17.86-.07,1.68-.66,3.4-1.27,5-1.41,3.7-3.84,6.81-6.47,9.68-4.93,5.38-10.28,10.36-16.21,14.64-5.94,4.29-11.95,8.5-18.11,12.48-5.79,3.74-11.8,7.15-17.73,10.67-2.22,1.32-4.48,2.56-7.08,4.04.99.15,1.55.33,2.11.31,1.95-.06,3.91-.07,5.84-.3,3.02-.37,6.05-.71,9.01-1.4,6.67-1.55,12.92-4.13,18.81-7.66,7.86-4.71,14.56-10.75,20.38-17.7,3.4-4.05,6.4-8.47,9.18-12.96,2.43-3.91,4.48-8.09,6.37-12.29,2.26-5,2.86-10.46,3.51-15.84.56-4.71.9-9.48.9-14.23.02-16.43-.1-32.86-.27-49.3-.09-8.73-.42-17.46-.56-26.18-.09-5.68-.04-11.36,0-17.04,0-1.12.23-2.25.35-3.37.17-.11.34-.22.51-.33,2.34,2.57,4.68,5.14,7.02,7.71.14-.1.29-.2.43-.29-3.12-14.01-6.85-27.85-11.32-41.7ZM104.14,134.38c.06.12.12.24.18.37-1.86,1.6-3.69,3.24-5.58,4.8-1.27,1.04-2.73,1.79-4.42,1.21-1.92-.66-3.03-2.21-3.17-4.14-.19-2.54-.39-5.16.02-7.65.83-5.01,1.59-10.11,3.25-14.87,2.94-8.42,6.54-16.61,9.87-24.9.49-1.22,1.03-2.41,1.54-3.62-1.43,1.45-2.58,3.03-3.65,4.67-3.7,5.63-7.42,11.25-11.03,16.94-3.27,5.14-5.73,10.69-7.81,16.4-1.71,4.7-3.14,9.46-3.62,14.49-.49,5.11-.27,10.05,3.26,14.06,2.96,3.37,7.16,4.33,11.06,1.04,5.03-4.25,7.83-9.85,9.46-16.11.23-.89.43-1.78.65-2.67ZM149.27,82.53c.7,0,1.1.07,1.46-.01,3.8-.86,7.57-1.86,11.4-2.6,5.83-1.12,10.69-3.84,14.64-8.24,4.03-4.48,7.3-9.46,9.95-14.86.68-1.38.37-2.29-1.06-2.75-.73-.23-1.51-.35-2.27-.39-2.73-.13-5.46-.23-8.2-.3-4.6-.12-9.2-.18-13.8-.31-1.32-.04-2.15.52-2.88,1.58-1.81,2.62-3.72,5.16-5.58,7.74-1.22,1.7-2.41,3.42-3.78,5.35,8.08-1.16,15.83-2.5,23.61.38-7.22,5.6-15.55,9.28-23.49,14.4Z"/>
    <path class="st0" d="M169.59,174.38c-5.15-.29-10.29-.57-15.44-.86-.14,0-.3-.02-.43-.08-1.06-.48-2.45-.56-2.72-2.04-.19-1.02,1.06-3.11,2.17-3.69,2.54-1.32,5.08-1.41,7.78-.3,3.49,1.43,6.22,3.79,8.81,6.37-.06.2-.12.41-.18.61Z"/>
  </g>
</svg>