<?xml version="1.0" encoding="UTF-8"?>
<svg id="Layer_1" xmlns="http://www.w3.org/2000/svg" version="1.1" xmlns:xlink="http://www.w3.org/1999/xlink" viewBox="0 0 1000 820.42">
  <!-- Generator: Adobe Illustrator 30.6.0, SVG Export Plug-In . SVG Version: 2.1.4 Build 109)  -->
  <defs>
    <style>
      .st0 {
        fill: #fff;
      }

      .st1 {
        clip-path: url(#clippath);
      }
    </style>
    <clipPath id="clippath">
      <path id="SVGID1" data-name="SVGID" class="st0" d="M592.33,195.56c0,5.04,13.47,19.21,13.47,19.21,3.07-8.11,3.6-20.9,0-24.24-1-.96-2.5-1.38-4.13-1.38-4.21,0-9.34,2.77-9.34,6.41"/>
    </clipPath>
  </defs>
  <g>
    <g>
      <path id="SVGID" class="st0" d="M592.33,195.56c0,5.04,13.47,19.21,13.47,19.21,3.07-8.11,3.6-20.9,0-24.24-1-.96-2.5-1.38-4.13-1.38-4.21,0-9.34,2.77-9.34,6.41"/>
      <g class="st1">
        <polygon class="st0" points="602.85 180.88 621.91 204.94 598.88 223.03 579.82 198.98 602.85 180.88"/>
      </g>
    </g>
    <path class="st0" d="M690.87,405.72c5.74-5.19,9.14-11.21,11.64-17.82,3.61-9.52,5.68-19.38,6.33-29.51.56-8.57,1.12-17.16,1.14-25.74.11-45.47.11-90.95.03-136.42-.04-20.06-.37-40.12-.52-60.18,0-1.05.39-2.97.75-3.01,1.28-.12,3.01-.03,3.87.74,2.81,2.53,5.31,5.4,7.92,8.14.5.52.99,1.05,2,2.13-1.68-10.07-3.23-19.38-4.79-28.7.22-.1.44-.2.65-.31,2.77,4,5.8,7.85,8.25,12.03,4.41,7.51,8.84,15.04,12.6,22.87,8.48,17.67,15.17,36.01,18.92,55.29,1.93,9.91,4.16,19.83,5.04,29.85,1.1,12.56,1.52,25.24,1.16,37.84-.32,11.15-1.93,22.28-3.31,33.38-2.03,16.27-6.6,31.94-12.17,47.31-6.2,17.12-14,33.53-24.06,48.73-6.78,10.25-13.9,20.37-21.83,29.74-7.76,9.18-16.61,17.47-25.22,25.92-10.21,10.01-21.77,18.38-33.74,26.16-12.75,8.29-26.25,15.17-40.23,21.2-13.78,5.95-27.98,10.55-42.58,13.86-8.02,1.82-16.21,2.94-24.32,4.38-17.13,3.04-34.44,2.51-51.69,2.16-8.04-.16-16.06-1.72-24.07-2.71-17.47-2.17-34.34-6.79-50.87-12.7-16.21-5.79-31.6-13.28-46.38-22.11-11.93-7.13-23.2-15.18-33.73-24.13-8.15-6.92-15.58-14.7-23.13-22.3-11.44-11.5-20.93-24.55-29.68-38.15-9.4-14.63-17.11-30.11-23.4-46.29-5.96-15.33-10.35-31.14-13.25-47.32-1.43-8-2.35-16.13-2.93-24.24-.72-9.9-1.37-19.87-1.09-29.78.29-10.03,1.6-20.05,2.74-30.04,2.1-18.37,6.87-36.13,13.33-53.42,2.81-7.51,5.99-14.9,9.34-22.19,5.5-11.96,11.86-23.49,19.58-34.18,6.04-8.37,12.3-16.61,18.95-24.5,5.73-6.8,11.86-13.33,18.33-19.44,13.21-12.48,27.45-23.76,43.17-32.99,9-5.28,18.14-10.39,27.56-14.85,16.54-7.83,33.77-13.91,51.77-17.53,9.37-1.88,18.77-3.69,28.23-5.08,5.84-.86,11.81-.94,17.73-1.24,5.65-.29,11.34-.83,16.97-.51,11.13.64,22.26,1.59,33.34,2.81,18.06,1.98,35.53,6.63,52.62,12.68,16.95,6.01,33.25,13.51,48.35,23.27,10.18,6.57,20.18,13.5,29.66,21.02,7.56,6,14.4,12.95,21.12,19.9,1.46,1.51,1.42,4.8,1.44,7.27.28,32.56.42,65.11.64,97.67.16,23.81.39,47.62.57,71.42.2,26.5.45,53,.55,79.5.03,8.71-.27,17.43-.57,26.14-.27,7.91-.65,15.83-1.17,23.73-.41,6.15-1.12,12.29-1.69,18.43-.03.38.05.76.12,1.77ZM343.83,361.8c.21,0,.42,0,.62,0,1.7-4.68,3.52-9.33,5.08-14.06,6.67-20.24,13-40.56,16.63-61.64,1.82-10.6,3.23-21.12,1.59-31.83-1.29-8.39-2.33-16.87-4.29-25.11-4.19-17.67-9.93-34.85-18.99-50.73-2.8-4.9-6.02-9.56-9.27-14.67-9.42,15.16-17.39,30.3-24.6,45.86-7.04,15.18-13.11,30.72-18.21,46.64-6.69,20.89-11.14,42.23-12.13,64.13-.42,9.41.13,18.95,1.19,28.32,1.18,10.39,3.85,20.55,7.98,30.25,6.38,14.99,14.94,28.43,27.12,39.53,8.67,7.9,18.33,14.05,29.02,18.79,12.48,5.53,25.62,8.32,39.11,9.09,13.29.76,26.54-.3,39.7-2.71,15.46-2.84,30.26-7.62,44.51-14.12,8.83-4.02,17.21-8.86,24.82-14.91,6.17-4.9,11.37-10.7,15.68-17.27,5.65-8.63,8.14-18.08,6.56-28.32-.54-3.48-1.43-7.14-3.14-10.17-4.47-7.93-11.62-12.58-20.45-14.68-2.88-.69-5.79-1.25-8.99-1.94,2.42-1.87,4.57-3.39,6.56-5.1,6.55-5.64,9.37-13.45,12.15-21.22,4.33-12.1,5.1-24.81,5.77-37.47.55-10.33.5-20.69.64-31.04.08-6.15-.09-12.31.05-18.46.09-4.04.52-8.07.84-12.64,15.77,16.86,31.22,33.39,46.77,50.02-9.04,6.8-17.69,13.3-26.34,19.8.22.33.44.67.66,1,9.53-5.84,19.07-11.68,28.94-17.73.42.51.93,1.22,1.51,1.86,6.97,7.73,14.06,15.36,20.91,23.19,6.07,6.94,12.13,13.91,17.77,21.2,12.86,16.6,22.53,34.94,29.25,54.82.7,2.07,1.61,4.07,2.74,6.88.69-1.74,1.22-2.65,1.4-3.62.66-3.71,1.24-7.44,1.78-11.18,1.41-9.74.96-19.45-2.43-28.67-2.26-6.14-5.22-12.21-8.87-17.64-7.97-11.85-16.34-23.46-25.01-34.81-5.2-6.8-11.29-12.91-16.95-19.37-1.67-1.91-3.21-3.94-4.81-5.92.37.25.75.49,1.12.74,9.59-10.37,19.18-20.74,28.67-31,3.24,2.58,5.88,4.68,8.76,6.96,1.44-3.84,1.86-7.25-.05-10.44-2.9-4.84-2.84-9.72-1.54-15.06,1.54-6.33,2.8-12.78,1.42-19.39-1.35-6.48-6.83-11.94-14.69-7.56-6.12,3.41-10.24,8.79-13.53,14.67-1.08,1.93-1.03,5.16-.26,7.35,2.86,8.13,8.87,14.12,14.92,20.45-2.29,2.65-4.6,5.67-7.27,8.33-6.46,6.44-13.12,12.69-19.63,19.09-1.28,1.26-2.18,1.26-3.3-.06-1.48-1.75-3.02-3.44-4.56-5.13-6.06-6.63-12.16-13.23-18.2-19.88-8.86-9.75-17.69-19.54-26.54-29.3-3.92-4.32-8.03-8.48-11.7-12.99-1.32-1.63-2.14-4.04-2.3-6.16-.61-8.08-.87-16.2-1.24-24.3-.4-8.87-.77-17.74-1.17-26.61-.04-.85-.21-1.7-.27-2.55-.33-5.27-.64-10.53-.96-15.8.24-.11.47-.22.71-.33,4.72,4,9.44,7.99,14.32,12.12,0-1.04.18-1.85-.03-2.55-2.8-9.68-5.69-19.34-8.48-29.02-3.53-12.22-6.99-24.46-10.51-36.68-.98-3.4-3-6.06-6.01-8.02-1.68-1.09-2.94-1.1-3.85.83-1.36,2.9-2.93,5.73-3.97,8.74-1.1,3.16-2.51,6.55-2.33,9.75.47,8.4,2.1,16.74,2.59,25.14.72,12.31.91,24.66,1.23,36.99.27,10.54.41,21.08.58,31.62,0,.59-.18,1.18-.34,2.15-.63-.55-.99-.78-1.25-1.09-3.6-4.19-7.17-8.4-10.77-12.58-5.97-6.93-12.05-13.75-17.88-20.79-2.09-2.53-4.65-4.99-4.9-8.76,7.53-2,12.98,3.45,20.03,4.96-16.21-21.04-33.95-39.57-57.24-53.09-.43,5.05-.81,9.48-1.19,13.91-.25,2.94-.17,5.95-.84,8.79-.54,2.3,0,3.83,1.51,5.38,1.4,1.43,2.93,2.82,3.97,4.49,2.91,4.65,5.29,9.65,8.43,14.13,9.06,12.95,18.09,25.93,27.69,38.47,9.57,12.51,19.81,24.51,29.79,36.71,2.59,3.17,5.21,6.22,5.34,10.65.32,10.7.75,21.4,1.14,32.09.18,4.87.4,9.74.57,14.6.4,11.08.79,22.16,1.16,33.25.31,9.37.61,18.74.83,28.11.06,2.71-.46,5.51-2.79,7.11-2.77,1.9-5.74,3.87-8.92,4.76-14.46,4.07-29.02,7.8-43.56,11.6-2.78.73-5.16,1.82-6.55,4.51-2.99,5.82-6.06,11.6-9.05,17.42-1.82,3.55-1.82,3.73,2.06,4.78,19.97,5.44,39.97,10.78,59.95,16.2,3.6.98,6.96,2.45,9.36,5.85-2.55,2.3-4.89,4.69-7.51,6.75-9.82,7.7-20.37,14.19-31.96,18.94-15.2,6.23-31.09,9.12-47.43,9.74-4.39.17-8.84-.05-13.21-.58-9.6-1.17-19.32-1.99-28.72-4.14-15.39-3.53-28.74-11-39.49-22.87-7.04-7.78-12.42-16.46-16.43-26.07-6.29-15.03-9.02-30.82-9.73-46.96-.49-11.06-.19-22.15,1.66-33.13,1.46-8.65,2.67-17.36,4.47-25.94,3.11-14.79,7.92-29.1,13.55-43.12,2.13-5.29,4.59-10.45,6.91-15.66.31.03.62.07.93.1.98,3.29,2.01,6.57,2.92,9.88,5.03,18.27,7.55,37,9.77,55.75,1.18,10,1.82,20.08,2.34,30.14.47,8.99.55,18,.61,27,.1,13.07.02,26.15.02,39.22v3.08ZM330.45,456.25c.71.79,1.11,1.5,1.71,1.88,6.07,3.86,11.95,8.07,18.31,11.38,9.93,5.17,20.49,8.92,31.53,10.94,8.11,1.49,16.3,2.69,24.51,3.42,6.06.54,12.22.38,18.3.05,10.19-.55,20.51-.67,30.51-2.46,13.55-2.44,26.98-5.82,40.22-9.65,16.49-4.78,31.79-12.37,45.66-22.53,8.04-5.89,15.99-11.91,23.63-18.3,6.96-5.82,13.68-11.98,20.06-18.43,3.28-3.32,6.14-7.33,8.2-11.51,6.12-12.44,8.82-25.59,7.61-39.58-.59-6.84-1.62-13.49-3.62-20.03-3.23-10.56-9.04-19.68-16.85-27.27-5.13-4.98-11.11-9.25-17.21-13.03-6.72-4.17-14.36-5.43-21.81-1.93-4.3,2.02-8.19,5.01-12.03,7.88-5.6,4.17-9.43,9.84-12.14,16.17-3.45,8.05-4.88,16.41-3.57,25.23,1.14,7.65,4.8,13.26,12.1,16.09,7.03,2.73,14.31,2.87,21.84,2.48,11.52-.59,23.22-.81,33.96,4.57,3.44,1.73,6.66,4.04,9.64,6.49,2.08,1.71,1.69,3.41-.37,5.05-7.66,6.07-15.24,12.26-22.99,18.22-9.17,7.05-18.37,14.06-27.77,20.79-13.46,9.64-27.89,17.69-43.17,24.06-9.58,3.99-19.4,7.56-29.39,10.36-10.54,2.96-21.33,5.13-32.12,7.02-8.32,1.46-16.79,2.59-25.22,2.74-11.88.21-23.82-.24-35.67-1.13-7.9-.59-15.76-2.21-23.55-3.8-6.72-1.37-13.3-3.36-20.29-5.17ZM651.45,61.93c-5.02,4.37-8.28,9.34-10.46,14.96-1.16,2.98-2.81,5.74-2.02,9.45,1.16,5.44,1.65,11.08,1.9,16.66.43,9.57.47,19.15.64,28.73.21,12.17.39,24.35.59,36.52.19,11.31.4,22.62.57,33.93.21,13.9.45,27.81.55,41.71.03,4.29-.43,8.58-.53,12.87-.24,10.83-.43,21.66-.59,32.48-.22,14.67-.38,29.35-.59,44.02-.17,11.69-.21,23.39-.68,35.08-.13,3.3-1.29,6.67-2.49,9.81-2.77,7.26-7.53,13.38-12.71,19.02-9.69,10.56-20.19,20.33-31.83,28.74-11.66,8.43-23.47,16.69-35.56,24.5-11.37,7.35-23.17,14.03-34.81,20.96-4.35,2.59-8.8,5.03-13.91,7.94,1.94.3,3.05.65,4.14.61,3.83-.11,7.68-.13,11.47-.59,5.92-.72,11.89-1.4,17.68-2.75,13.09-3.04,25.37-8.11,36.94-15.04,15.44-9.24,28.58-21.11,40.02-34.75,6.67-7.95,12.56-16.63,18.03-25.45,4.76-7.69,8.79-15.89,12.51-24.14,4.43-9.82,5.62-20.54,6.88-31.1,1.11-9.25,1.76-18.62,1.77-27.93.04-32.27-.2-64.53-.53-96.8-.17-17.14-.83-34.27-1.09-51.41-.17-11.15-.07-22.3,0-33.45.01-2.21.45-4.41.69-6.61.33-.22.67-.43,1-.65,4.59,5.05,9.19,10.09,13.78,15.14.28-.19.56-.39.84-.58-6.13-27.51-13.45-54.69-22.23-81.87ZM442.59,263.87c.12.24.24.48.36.72-3.65,3.15-7.24,6.37-10.96,9.42-2.49,2.04-5.37,3.52-8.68,2.37-3.77-1.3-5.95-4.33-6.23-8.13-.37-4.99-.77-10.14.04-15.02,1.63-9.83,3.12-19.86,6.39-29.2,5.78-16.53,12.84-32.62,19.39-48.89.96-2.39,2.02-4.74,3.03-7.1-2.8,2.84-5.06,5.96-7.18,9.18-7.26,11.06-14.58,22.09-21.67,33.26-6.41,10.1-11.25,20.99-15.33,32.2-3.36,9.22-6.17,18.57-7.12,28.46-.96,10.02-.53,19.73,6.39,27.6,5.81,6.61,14.05,8.51,21.72,2.04,9.88-8.34,15.38-19.35,18.57-31.64.45-1.74.85-3.5,1.27-5.25ZM531.21,162.05c1.38,0,2.15.14,2.86-.02,7.46-1.69,14.87-3.65,22.38-5.1,11.45-2.2,20.99-7.55,28.75-16.17,7.92-8.8,14.34-18.57,19.53-29.18,1.33-2.71.72-4.5-2.08-5.4-1.43-.46-2.96-.69-4.46-.76-5.36-.26-10.73-.46-16.1-.59-9.03-.23-18.07-.35-27.1-.62-2.59-.07-4.22,1.02-5.65,3.1-3.55,5.14-7.31,10.13-10.95,15.2-2.4,3.34-4.74,6.72-7.42,10.51,15.87-2.28,31.08-4.91,46.36.74-14.18,11-30.54,18.23-46.12,28.28Z"/>
    <path class="st0" d="M571.11,342.42c-10.11-.56-20.21-1.12-30.32-1.69-.28-.02-.59-.05-.84-.16-2.09-.93-4.82-1.11-5.35-4.01-.37-2.01,2.09-6.11,4.27-7.25,4.99-2.59,9.98-2.78,15.29-.59,6.85,2.82,12.21,7.44,17.31,12.5-.12.4-.24.8-.36,1.2Z"/>
  </g>
  <path class="st0" d="M83.27,675.21h-18.67l-5.21-15.18H24.66l-5.21,15.18H.92l30.48-84.33h21.27l30.6,84.33ZM42.1,610.04l-11.95,34.46h23.9l-11.95-34.46Z"/>
  <polygon class="st0" points="110.15 590.88 110.15 659.31 143.35 659.31 143.35 675.21 92.98 675.21 92.98 590.88 110.15 590.88"/>
  <rect class="st0" x="148.71" y="631.37" width="46.66" height="14.93"/>
  <path class="st0" d="M285.44,664.24c-8.79,8.44-19.51,12.64-32.1,12.64s-23.32-4.21-32.1-12.64c-8.7-8.59-13.07-18.99-13.07-31.2s4.36-22.63,13.07-31.09c8.78-8.5,19.48-12.76,32.1-12.76s23.3,4.26,32.1,12.76c8.78,8.45,13.17,18.8,13.17,31.09s-4.39,22.7-13.17,31.2M233.3,652.92c5.3,5.14,11.99,7.72,20.03,7.72s14.72-2.58,20.02-7.72c5.39-5.22,8.09-11.84,8.09-19.88s-2.69-14.65-8.09-19.88c-5.39-5.22-12.06-7.82-20.02-7.82s-14.64,2.6-20.03,7.82c-5.39,5.23-8.09,11.85-8.09,19.88s2.69,14.66,8.09,19.88"/>
  <path class="st0" d="M343.77,676.89c-9.71,0-17.67-2.64-23.88-7.94-6.23-5.3-9.33-12.41-9.33-21.33v-56.75h17.03v55.41c0,4.5,1.35,8.02,4.06,10.55,2.69,2.53,6.73,3.78,12.13,3.78s9.42-1.26,12.13-3.78c2.69-2.54,4.04-6.05,4.04-10.55v-55.41h17.18v56.75c0,8.91-3.12,16.03-9.35,21.33-6.22,5.3-14.21,7.94-24,7.94"/>
  <polygon class="st0" points="410.94 590.88 410.94 659.31 444.16 659.31 444.16 675.21 393.78 675.21 393.78 590.88 410.94 590.88"/>
  <path class="st0" d="M532.24,675.21h-18.66l-5.21-15.18h-34.73l-5.23,15.18h-18.53l30.48-84.33h21.27l30.6,84.33ZM491.06,610.04l-11.94,34.46h23.88l-11.95-34.46Z"/>
  <polygon class="st0" points="640.6 590.88 658.27 590.88 658.27 675.21 641.22 675.21 641.22 620.53 616.72 659.67 614.72 659.67 590.21 620.64 590.21 675.21 573.04 675.21 573.04 590.88 590.71 590.88 615.71 630.75 640.6 590.88"/>
  <path class="st0" d="M748.95,664.24c-8.79,8.44-19.49,12.64-32.09,12.64s-23.32-4.21-32.11-12.64c-8.7-8.59-13.06-18.99-13.06-31.2s4.35-22.63,13.06-31.09c8.79-8.5,19.49-12.76,32.11-12.76s23.29,4.26,32.09,12.76c8.79,8.45,13.18,18.8,13.18,31.09s-4.39,22.7-13.18,31.2M696.82,652.92c5.32,5.14,12,7.72,20.05,7.72s14.7-2.58,20.01-7.72c5.39-5.22,8.1-11.84,8.1-19.88s-2.7-14.65-8.1-19.88c-5.38-5.22-12.05-7.82-20.01-7.82s-14.65,2.6-20.05,7.82c-5.38,5.23-8.09,11.85-8.09,19.88s2.7,14.66,8.09,19.88"/>
  <polygon class="st0" points="764.01 590.88 828.08 590.88 828.08 606.78 804.56 606.78 804.56 675.21 787.39 675.21 787.39 606.78 764.01 606.78 764.01 590.88"/>
  <path class="st0" d="M907.2,664.24c-8.79,8.44-19.49,12.64-32.1,12.64s-23.32-4.21-32.1-12.64c-8.7-8.59-13.06-18.99-13.06-31.2s4.35-22.63,13.06-31.09c8.78-8.5,19.49-12.76,32.1-12.76s23.3,4.26,32.1,12.76c8.78,8.45,13.17,18.8,13.17,31.09s-4.39,22.7-13.17,31.2M855.07,652.92c5.3,5.14,11.99,7.72,20.03,7.72s14.72-2.58,20.02-7.72c5.38-5.22,8.09-11.84,8.09-19.88s-2.7-14.65-8.09-19.88c-5.39-5.22-12.06-7.82-20.02-7.82s-14.64,2.6-20.03,7.82c-5.39,5.23-8.09,11.85-8.09,19.88s2.69,14.66,8.09,19.88"/>
  <path class="st0" d="M1000,675.21h-18.54l-17.52-29.28h-13.07v29.28h-17.18v-84.33h34.83c8.06,0,14.88,2.74,20.54,8.21,5.63,5.46,8.46,12.04,8.46,19.75,0,5.22-1.53,10.05-4.6,14.52-3.08,4.45-7.13,7.81-12.21,10.07l19.29,31.79ZM968.52,606.42h-17.65v24.94h17.65c3.24,0,6.03-1.22,8.34-3.68,2.32-2.44,3.48-5.4,3.48-8.85s-1.16-6.39-3.48-8.8c-2.32-2.4-5.1-3.62-8.34-3.62"/>
  <path class="st0" d="M0,819.32l1.04-11.82c2.95.88,5.83,1.33,8.64,1.33,3.86,0,6.68-1.1,8.48-3.31,2.05-2.5,3.08-6.63,3.08-12.43v-54.2h14.06v53.38c0,18.76-8.77,28.15-26.36,28.15-3.12,0-6.1-.36-8.95-1.1"/>
  <path class="st0" d="M46.71,818.73l.89-12.16c5.55,1.28,11.1,1.92,16.61,1.92,12.33,0,18.5-4.99,18.5-14.95v-1.71h-8.33c-19.07,0-28.6-8.71-28.6-26.11,0-7.99,2.25-14.56,6.76-19.67,5.07-5.73,12.24-8.58,21.51-8.58,8.38,0,15.81,1.3,22.3,3.89v38.77h10.4v11.71h-10.4v.23c0,8.35-2.6,14.98-7.76,19.89-5.77,5.5-14.3,8.25-25.62,8.25-5.36,0-10.76-.49-16.26-1.47M82.71,751.21c-2.72-1.35-6.1-2.03-10.16-2.03s-7.03,1.42-9.32,4.28c-2.25,2.8-3.39,6.41-3.39,10.88,0,10.53,5.36,15.79,16.04,15.79h6.82v-28.92Z"/>
  <rect class="st0" x="105.2" y="780.12" width="31.4" height="11.71"/>
  <rect class="st0" x="135.42" y="780.12" width="31.4" height="11.71"/>
  <path class="st0" d="M165.63,780.13h14.95v-41.23h14.06v52.94h-29.01v-11.71ZM171.72,728.12c-1.34-1.46-2.02-3.27-2.02-5.39s.68-3.95,2.02-5.45c1.39-1.5,3.06-2.26,5.01-2.26s3.71.76,5.1,2.26c1.36,1.47,2.03,3.28,2.03,5.45s-.67,3.89-2.03,5.39c-1.39,1.5-3.09,2.26-5.1,2.26s-3.66-.76-5.01-2.26M189.43,728.12c-1.35-1.46-2.03-3.27-2.03-5.39s.68-3.95,2.03-5.45c1.38-1.5,3.05-2.26,4.99-2.26s3.64.76,5,2.26c1.37,1.47,2.03,3.28,2.03,5.45s-.67,3.89-2.03,5.39c-1.38,1.5-3.05,2.26-5,2.26s-3.64-.76-4.99-2.26"/>
  <path class="st0" d="M206.04,818.73l.88-12.16c5.56,1.28,11.11,1.92,16.62,1.92,12.32,0,18.49-4.99,18.49-14.95v-1.71h-8.33c-19.06,0-28.6-8.71-28.6-26.11,0-7.99,2.27-14.56,6.77-19.67,5.07-5.73,12.24-8.58,21.5-8.58,8.38,0,15.81,1.3,22.31,3.89v38.77h10.4v11.71h-10.4v.23c0,8.35-2.6,14.98-7.78,19.89-5.76,5.5-14.3,8.25-25.62,8.25-5.34,0-10.76-.49-16.25-1.47M242.03,751.21c-2.7-1.35-6.1-2.03-10.15-2.03s-7.04,1.42-9.33,4.28c-2.25,2.8-3.37,6.41-3.37,10.88,0,10.53,5.34,15.79,16.04,15.79h6.81v-28.92Z"/>
  <rect class="st0" x="264.54" y="780.12" width="31.4" height="11.71"/>
  <path class="st0" d="M294.73,791.83v-11.71h6.1c2.46,0,4.44.27,5.94.78-3.97-3.05-5.94-8.43-5.94-16.11s2.29-13.97,6.88-19.03c5.07-5.53,12.01-8.3,20.82-8.3,16.08,0,24.13,8.63,24.13,25.89v28.47h-57.93ZM338.91,765.17c0-10.66-3.8-15.99-11.41-15.99-3.91,0-7.06,1.42-9.37,4.28-2.23,2.8-3.34,6.41-3.34,10.89,0,10.52,5.33,15.77,15.99,15.77h8.12v-14.95Z"/>
  <path class="st0" d="M466.47,791.83v-27.93c0-5.42-.88-9.22-2.6-11.43-1.75-2.19-4.82-3.3-9.23-3.3-2.37,0-4.7.21-7.03.67v41.99h-22.29c-13.93,0-24.08-2.98-30.46-8.95-5.82-5.39-8.7-13.52-8.7-24.37,0-6.45.91-12.35,2.76-17.7l15.06-2.59c-2.45,5.62-3.66,11.81-3.66,18.6,0,8.17,1.93,14.03,5.79,17.6,4.04,3.8,10.94,5.71,20.67,5.71h7.29v-40.51c6.61-1.44,13.74-2.14,21.41-2.14,8.96,0,15.41,2.22,19.38,6.64,3.5,3.96,5.27,10.03,5.27,18.2v17.81h18.64v-67.66h14.06v79.37h-46.35Z"/>
  <path class="st0" d="M526.46,818.73l.89-12.16c5.56,1.28,11.1,1.92,16.61,1.92,12.33,0,18.5-4.99,18.5-14.95v-1.71h-8.33c-19.07,0-28.6-8.71-28.6-26.11,0-7.99,2.25-14.56,6.76-19.67,5.09-5.73,12.24-8.58,21.51-8.58,8.38,0,15.81,1.3,22.3,3.89v50.71c0,8.35-2.6,14.98-7.76,19.89-5.77,5.5-14.3,8.25-25.62,8.25-5.34,0-10.78-.49-16.26-1.47M562.46,751.21c-2.72-1.35-6.1-2.03-10.16-2.03s-7.04,1.42-9.32,4.28c-2.25,2.8-3.39,6.41-3.39,10.88,0,10.53,5.34,15.79,16.04,15.79h6.82v-28.92Z"/>
  <path class="st0" d="M583.4,719.1c2.28,0,4.09.14,5.39.44-1.03-.83-1.54-2.21-1.54-4.07,0-3.12,1.18-5.67,3.59-7.69,2.68-2.21,6.41-3.31,11.2-3.31,2.7,0,4.8.23,6.3.67l-1.26,7.64c-1.24-.36-3.03-.55-5.36-.55-3.21,0-4.79,1.08-4.79,3.24,0,2.41,2.27,3.63,6.82,3.63h6.5v7.76h-26.86v-7.76ZM616.89,771.66h-14.28l-11.41-41.06h14.47l11.21,41.06ZM591.73,791.83v-11.71h32.96v-65.75h14.06v77.46h-47.02Z"/>
  <rect class="st0" x="656.78" y="712.46" width="14.06" height="79.37"/>
  <path class="st0" d="M733.34,791.83c-19.06,0-28.6-8.71-28.6-26.11,0-7.99,2.25-14.56,6.77-19.69,5.06-5.72,12.24-8.57,21.52-8.57,8.37,0,15.78,1.3,22.29,3.89v38.77h10.42v11.71h-32.39ZM717.76,728.12c-1.35-1.46-2.02-3.27-2.02-5.39s.67-3.95,2.02-5.45c1.39-1.5,3.05-2.26,5.01-2.26s3.71.76,5.1,2.26c1.36,1.47,2.02,3.28,2.02,5.45s-.66,3.89-2.02,5.39c-1.39,1.5-3.09,2.26-5.1,2.26s-3.66-.76-5.01-2.26M741.66,751.21c-2.69-1.36-6.08-2.03-10.15-2.03s-7.03,1.42-9.32,4.28c-2.25,2.78-3.39,6.41-3.39,10.88,0,10.53,5.34,15.79,16.04,15.79h6.81v-28.92ZM735.48,728.12c-1.35-1.46-2.03-3.27-2.03-5.39s.68-3.95,2.03-5.45c1.38-1.5,3.05-2.26,4.99-2.26s3.64.76,5,2.26c1.35,1.47,2.03,3.28,2.03,5.45s-.68,3.89-2.03,5.39c-1.35,1.5-3.01,2.26-5,2.26s-3.66-.76-4.99-2.26"/>
  <path class="st0" d="M764.17,780.12h31.67c-.62-17.04-9.35-27.62-26.15-31.78v-10.88l42.3-27.93v14.75l-26.05,16.54c15.77,7.48,23.64,21.96,23.64,43.47v7.53h-45.41v-11.71Z"/>
  <path class="st0" d="M804.8,819.32l1.04-11.82c2.95.88,5.83,1.33,8.64,1.33,3.86,0,6.68-1.1,8.5-3.31,2.03-2.5,3.06-6.63,3.06-12.43v-54.2h14.06v41.22h10.48v11.71h-10.48v.45c0,18.76-8.77,28.15-26.34,28.15-3.13,0-6.12-.36-8.96-1.1"/>
  <rect class="st0" x="848.92" y="780.12" width="31.4" height="11.71"/>
  <rect class="st0" x="879.13" y="780.12" width="31.39" height="11.71"/>
  <path class="st0" d="M909.33,780.13h5.33c3.53,0,5.99-.96,7.39-2.86,1.48-2.01,2.24-5.71,2.24-11.11v-20.51h14.05v20.84c0,5.42.45,9.11,1.31,11.05,1,2.3,3.01,3.45,6.04,3.45,5.69,0,8.55-4.8,8.55-14.4v-25.44h13.53v28.25c0,4.41.86,7.3,2.61,8.68,1.66,1.36,5,2.04,9.99,2.04h2.77c.51-4.21.77-8.72.77-13.53,0-10.37-1.04-20.43-3.13-30.18l13.76-1.99c2.28,10.08,3.42,20.48,3.42,31.18,0,9.49-.54,18.24-1.61,26.23h-17.6c-5.81,0-10.11-.51-12.93-1.54-3.01-1.13-5.29-3.21-6.81-6.22-2.54,5.76-7.89,8.64-16.09,8.64-7.61,0-12.33-2.91-14.18-8.76-2.19,5.26-6.93,7.87-14.21,7.87h-5.21v-11.71ZM946.68,728.12c-1.37-1.46-2.02-3.27-2.02-5.39s.66-3.95,2.02-5.45c1.38-1.5,3.05-2.26,5-2.26s3.64.76,5,2.26c1.36,1.47,2.03,3.28,2.03,5.45s-.67,3.89-2.03,5.39c-1.35,1.5-3.01,2.26-5,2.26s-3.64-.76-5-2.26M955.8,712.3c-1.26-1.37-1.88-3.04-1.88-5.01s.62-3.64,1.88-5.01c1.27-1.38,2.83-2.08,4.64-2.08s3.44.69,4.67,2.08c1.29,1.37,1.94,3.04,1.94,5.01s-.66,3.64-1.94,5.01c-1.24,1.38-2.79,2.08-4.67,2.08s-3.36-.69-4.64-2.08M964.28,728.12c-1.35-1.46-2.03-3.27-2.03-5.39s.68-3.95,2.03-5.45c1.39-1.5,3.09-2.26,5.1-2.26s3.66.76,5.01,2.26c1.37,1.47,2.02,3.28,2.02,5.45s-.66,3.89-2.02,5.39c-1.39,1.5-3.06,2.26-5.01,2.26s-3.71-.76-5.1-2.26"/>
</svg>