<?xml version="1.0" encoding="UTF-8"?>
<svg id="Layer_1" xmlns="http://www.w3.org/2000/svg" version="1.1" viewBox="0 0 999.74 134.68">
  <!-- Generator: Adobe Illustrator 30.6.0, SVG Export Plug-In . SVG Version: 2.1.4 Build 109)  -->
  <defs>
    <style>
      .st0 {
        fill: #003469;
      }
    </style>
  </defs>
  <path class="st0" d="M134.04,134.68c-8.4-.04-16.77-.52-25.12-1.33-19.11-1.86-37.81-5.65-55.81-12.49-8.19-3.11-16.09-6.84-23.53-11.48-5.9-3.68-11.4-7.86-16.24-12.87-4.08-4.23-7.56-8.88-9.97-14.27-4.63-10.35-4.48-20.67.4-30.89,3.11-6.52,7.7-11.91,13.01-16.72,5.23-4.73,11.02-8.66,17.15-12.12,8.76-4.94,18.01-8.76,27.56-11.85,11.11-3.59,22.47-6.11,34.02-7.86C109.97.61,124.51-.17,139.11.03c7.48.1,14.94.52,22.37,1.31,18.09,1.92,35.79,5.56,52.88,11.95,8.3,3.1,16.3,6.81,23.85,11.45,6.16,3.78,11.89,8.11,16.92,13.33,3.75,3.9,6.99,8.17,9.35,13.06,5.16,10.7,5.17,21.42.04,32.13-2.39,4.98-5.69,9.32-9.51,13.28-4.84,5.01-10.34,9.2-16.24,12.87-10.27,6.39-21.32,11.06-32.82,14.71-10.17,3.24-20.54,5.6-31.08,7.26-8.65,1.36-17.33,2.35-26.08,2.73-4.92.21-9.83.39-14.75.59ZM87.51,14.83c-.25.04-1.06.13-1.86.28-9.58,1.81-18.97,4.34-28.14,7.68-8.49,3.09-16.66,6.86-24.25,11.79-4.37,2.84-8.44,6.03-12.05,9.8-2.66,2.77-5.01,5.78-6.81,9.19-4.89,9.25-4.8,18.48.2,27.66,2.06,3.79,4.78,7.08,7.86,10.09,3.93,3.84,8.33,7.05,13,9.92.54.33,1.11.64,1.7.87,1.75.69,3.01.31,3.96-1.3.69-1.17,1.23-2.43,1.78-3.68,5.94-13.41,12.42-26.54,19.69-39.27,7.73-13.54,16.2-26.58,26.36-38.46.41-.48.81-.99,1.14-1.53,1.02-1.66.43-2.85-1.47-3.03-.18-.02-.36,0-1.12,0ZM257.48,67.25c.11-4.48-1.06-8.74-3.08-12.8-1.88-3.79-4.42-7.11-7.34-10.15-4.26-4.43-9.17-8.05-14.39-11.25-.39-.24-.78-.47-1.2-.64-1.97-.81-3.33-.38-4.37,1.46-.63,1.11-1.14,2.28-1.65,3.45-7.63,17.16-16.1,33.9-25.99,49.88-6,9.7-12.52,19.03-19.94,27.71-.59.69-1.16,1.42-1.56,2.23-.59,1.17,0,2.28,1.34,2.32,1.53.05,3.12,0,4.6-.33,4.97-1.11,9.95-2.25,14.86-3.6,10.31-2.83,20.26-6.6,29.67-11.71,6.27-3.4,12.16-7.36,17.3-12.35,3.42-3.32,6.39-6.99,8.56-11.26,2.05-4.04,3.27-8.29,3.2-12.95ZM143.2,10.41c-3.46,0-6.93-.08-10.39.02-5.72.16-10.68,2.19-14.53,6.51-1.45,1.62-2.81,3.37-3.92,5.24-3.4,5.74-5.98,11.87-7.91,18.25-.82,2.71-1.18,5.51-.98,8.37.36,5.04,3.3,8.07,7.52,9.33,3,.9,6.07,1.08,9.2.81,4.65-.4,9.16-1.5,13.64-2.71,10.12-2.74,19.93-6.4,29.65-10.28,10.17-4.05,20.03-8.76,29.26-14.67,2.76-1.77,5.38-3.75,8.03-5.68.66-.48,1.27-1.05,1.78-1.69,1.05-1.32.84-2.62-.67-3.41-1.11-.59-2.35-.99-3.56-1.34-18.65-5.42-37.75-7.91-57.11-8.74ZM128.17,123.82c2.92,0,5.83.1,8.74-.02,5.25-.22,9.73-2.27,13.29-6.12,1.54-1.66,2.99-3.47,4.13-5.41,3.48-5.9,6.13-12.19,8.07-18.77.78-2.64,1.1-5.35.86-8.11-.36-4.19-2.44-7.16-6.36-8.78-.67-.28-1.38-.48-2.08-.65-3.69-.92-7.43-.81-11.13-.2-3.41.55-6.8,1.3-10.13,2.22-13.19,3.62-25.98,8.39-38.48,13.91-8.34,3.68-16.39,7.93-23.95,13.07-1.88,1.28-3.69,2.67-5.49,4.07-.64.5-1.21,1.11-1.67,1.78-.73,1.04-.49,2.11.56,2.84.52.36,1.11.64,1.7.85,1.11.4,2.25.74,3.38,1.06,10.52,3.02,21.25,5.07,32.1,6.41,8.77,1.08,17.58,1.84,26.43,1.85Z"/>
  <path class="st0" d="M863.91,115.12c0-1.13,0-2.12,0-3.12,0-24.14,0-48.29,0-72.43,0-2.19.06-4.36.56-6.51,1.74-7.46,7.56-12.79,15.19-13.74,1.98-.25,4-.37,6-.38,21.33-.03,42.66-.02,63.98,0,1.07,0,2.19-.22,3.34.38.07.56.2,1.18.22,1.8.41,14.59.18,91.31-.29,94.12-.37.08-.8.24-1.23.24-6.74.01-13.49.01-20.23,0-.35,0-.7-.1-1.11-.17-.48-.99-.31-2-.31-2.97-.02-7.74,0-15.49-.01-23.23,0-.99-.05-1.99-.07-3.12-.72-.14-1.32-.34-1.92-.36-1.73-.05-3.46-.02-5.19-.02-10.66,0-21.33,0-31.99,0-1.08,0-2.16.07-3.13.1-.74,1.1-.48,2.13-.49,3.1-.02,7.84,0,15.67-.02,23.51,0,.98.23,2.01-.34,2.92-2.4.4-20.41.37-22.94-.1ZM929.72,39.9c-1.02-.05-1.83-.12-2.64-.12-11.2,0-22.4,0-33.6,0-.73,0-1.46,0-2.18.1-2.05.3-3.66,1.9-4,3.93-.08.45-.09.91-.09,1.36,0,6.01,0,12.02,0,18.02,0,.43.11.86.18,1.43,1.03.05,1.91.13,2.8.14,4.1.01,8.2,0,12.29,0,8.1,0,16.21,0,24.31,0,.97,0,1.99.19,2.97-.34.07-.39.2-.73.2-1.08.01-7.37,0-14.75,0-22.12,0-.35-.13-.7-.25-1.33Z"/>
  <path class="st0" d="M753.83,115.48c-.16-.62-.29-.87-.29-1.13,0-31.43,0-62.86,0-94.29,0-.25.13-.51.19-.74.95-.62,1.98-.39,2.96-.39,6.02-.02,12.03-.01,18.05-.01,15.49,0,30.99,0,46.48,0,2.83,0,5.66.12,8.39.92,7.26,2.12,11.59,6.93,12.89,14.38.3,1.69.42,3.44.42,5.16.03,18.59.01,37.17.02,55.76,0,2.47-.21,4.91-.9,7.29-1.93,6.63-6.35,10.68-12.97,12.36-1.57.4-3.23.5-4.86.65-1.09.1-2.19.05-3.28.05-21.24,0-42.47,0-63.71,0h-3.4ZM776.99,94.61c1.02.06,1.91.15,2.8.15,11.12,0,22.24,0,33.36,0,.55,0,1.1.02,1.64-.03,2.69-.22,4.54-2.01,4.82-4.71.07-.63.04-1.27.04-1.91,0-13.94,0-27.88,0-41.82,0-.64.03-1.28-.04-1.91-.28-2.6-2-4.29-4.63-4.55-.72-.07-1.46-.05-2.19-.06-4.28,0-8.57,0-12.85,0-6.65,0-13.31,0-19.96,0-.97,0-1.99-.16-2.86.26-.46,2.77-.64,36.44-.3,52.55.01.61.1,1.23.17,2.01Z"/>
  <path class="st0" d="M642.48,18.92c1.05,0,1.96,0,2.86,0,21.6,0,43.2-.02,64.79.03,2.44,0,4.92.25,7.32.72,6.32,1.23,13.21,6.19,13.99,16.7.09,1.27.08,2.55.08,3.82,0,23.96,0,47.92,0,71.87v3.03c-.5.15-.83.34-1.16.35-6.93.02-13.85.03-20.78.02-.34,0-.69-.14-.98-.2-.59-1.03-.36-2.05-.37-3.03-.02-12.57-.01-25.14-.01-37.71,0-9.29,0-18.58,0-27.88,0-.82.03-1.64-.06-2.46-.24-2.37-1.85-4.03-4.2-4.32-.72-.09-1.45-.08-2.18-.08-11.12,0-22.24,0-33.35,0-.89,0-1.82-.19-2.79.37-.07.35-.21.77-.24,1.21-.04.91-.03,1.82-.03,2.73,0,22.59,0,45.18,0,67.77,0,1.08-.05,2.15-.08,3.34-2.67.5-5.21.2-7.73.25-2.46.05-4.92.01-7.38.01h-7.75c-.14-.78-.29-1.37-.34-1.98-.05-.63-.02-1.27-.02-1.91,0-29.61,0-59.21,0-88.82,0-1.16-.18-2.35.38-3.86Z"/>
  <path class="st0" d="M341.11,115.47c-7.84.01-15.3.02-22.87,0-.13-.68-.29-1.19-.32-1.7-.05-.73-.02-1.46-.02-2.19,0-29.62,0-59.24,0-88.85,0-1.16-.22-2.36.29-3.49.3-.1.55-.27.8-.27,6.93-.03,13.86-.04,20.78-.04.35,0,.69.13,1.07.21.57.97.38,1.99.38,2.97.02,6.29,0,12.58,0,18.86,0,3.92,0,7.84,0,11.76,0,.9.05,1.8.07,2.59,1.19.77,2.32.51,3.38.51,11.49.02,22.97.01,34.46.01,1,0,2.01.01,3.01-.01.45-.01.9-.09,1.28-.14.79-.82.57-1.77.58-2.66.02-4.28.01-8.57.01-12.85,0-5.92,0-11.85,0-17.77,0-.99.05-1.98.08-3.08.52-.15.94-.38,1.35-.38,6.75-.02,13.49-.03,20.24-.01.43,0,.87.18,1.26.27.47,2.51.68,66.23.31,93.55-.01.8-.12,1.59-.19,2.54-2.02.32-3.92.14-5.81.17-1.91.03-3.83,0-5.74,0s-3.65.02-5.47,0c-1.89-.02-3.79.12-5.72-.15-.44-1.19-.31-2.29-.31-3.36-.01-10.57,0-21.14-.01-31.71,0-1.08-.07-2.15-.11-3.26-1.09-.56-2.1-.38-3.07-.38-7.75-.02-15.5,0-23.25,0-4.38,0-8.75,0-13.13,0h-2.83c-.16.66-.34,1.16-.38,1.67-.06.82-.03,1.64-.03,2.46,0,10.39,0,20.78,0,31.17,0,1.08-.07,2.15-.12,3.57Z"/>
  <path class="st0" d="M531.08,19.18c.51-.08,1.03-.23,1.56-.25,6.63-.27,18.91-.1,21.17.3.09.45.24.95.27,1.47.05.82.02,1.64.02,2.46,0,22.69,0,45.38,0,68.07,0,1.07-.12,2.16.26,3.35.57.07,1.09.18,1.62.18,11.76.01,23.52,0,35.28,0,.27,0,.55,0,.82-.02,2.72-.23,4.55-1.98,4.82-4.7.09-.9.04-1.82.04-2.73,0-21.6,0-43.19,0-64.79,0-1.08-.12-2.18.22-3.35.65-.09,1.26-.22,1.88-.24,8.71-.25,18.52-.12,20.88.3.09.46.23.97.28,1.49.05.54.02,1.09.02,1.64,0,23.96,0,47.93,0,71.89,0,2.65-.13,5.28-.83,7.86-1.84,6.78-6.27,10.94-13,12.67-1.57.4-3.23.5-4.86.65-1.09.1-2.19.05-3.28.05-21.24,0-42.48,0-63.72,0h-3.37c-.14-.66-.29-1.16-.33-1.68-.05-.63-.02-1.27-.02-1.91,0-29.8,0-59.59,0-89.39,0-1.07-.18-2.18.26-3.33Z"/>
  <path class="st0" d="M468.95,57.19c.84-1.25,1.4-2.07,1.94-2.9,7.04-10.96,14.07-21.93,21.11-32.89,1.77-2.76,1.25-2.47,4.56-2.48,7.11-.01,14.22,0,21.33,0,.89,0,1.8-.14,2.76.28-.22,1.12-.9,1.87-1.42,2.68-8.31,12.96-16.63,25.92-24.95,38.87-4.13,6.44-8.23,12.91-12.42,19.31-.95,1.45-1.35,2.89-1.34,4.6.05,9.02.02,18.04.02,27.06v3.35c-.56.16-.97.38-1.39.38-6.84.02-13.67.01-20.51,0-.26,0-.53-.09-.95-.17-.11-.46-.29-.96-.32-1.48-.06-.82-.03-1.64-.03-2.46,0-8.75-.04-17.5.03-26.24.01-1.99-.43-3.67-1.53-5.37-12.4-19.21-24.74-38.46-37.09-57.71-.54-.84-1.04-1.7-1.67-2.74.68-.15,1.17-.35,1.67-.35,7.93-.02,15.86.01,23.79-.04,1.38,0,2.16.55,2.84,1.66,1.57,2.56,3.23,5.07,4.85,7.6,5.6,8.74,11.21,17.49,16.81,26.23.53.82,1.1,1.62,1.91,2.8Z"/>
  <path class="st0" d="M976.49,19.31c.31-.13.56-.33.8-.33,7.01-.02,14.03-.03,21.04-.02.34,0,.68.19,1,.28.4,2.92.57,75.54.23,94.03-.01.62-.09,1.23-.12,1.68-.23.22-.28.3-.36.35-.08.04-.17.07-.26.07-7.01.03-14.03.06-21.04.08-.36,0-.72-.08-1.21-.14-.11-.51-.26-1.02-.31-1.53-.05-.63-.02-1.27-.02-1.91,0-29.78,0-59.56,0-89.34,0-1.07-.18-2.17.24-3.21Z"/>
</svg>