<?xml version="1.0" encoding="UTF-8"?>
<svg id="Layer_1" xmlns="http://www.w3.org/2000/svg" version="1.1" viewBox="0 0 999.2 134.6">
  <!-- Generator: Adobe Illustrator 30.6.0, SVG Export Plug-In . SVG Version: 2.1.4 Build 109)  -->
  <defs>
    <style>
      .st0 {
        fill: #fff;
      }
    </style>
  </defs>
  <path class="st0" d="M133.97,134.6c-8.4-.04-16.77-.51-25.11-1.33-19.1-1.86-37.79-5.65-55.78-12.48-8.19-3.11-16.08-6.84-23.52-11.47-5.9-3.67-11.4-7.86-16.23-12.87-4.08-4.22-7.55-8.88-9.96-14.26-4.63-10.35-4.48-20.66.4-30.88,3.11-6.51,7.69-11.9,13-16.71,5.22-4.73,11.02-8.66,17.15-12.11,8.76-4.94,18-8.76,27.55-11.84,11.11-3.59,22.46-6.11,34-7.86C109.91.61,124.44-.17,139.04.03c7.48.1,14.93.52,22.36,1.3,18.08,1.92,35.78,5.56,52.85,11.94,8.29,3.1,16.29,6.81,23.84,11.45,6.16,3.78,11.89,8.1,16.91,13.32,3.75,3.9,6.99,8.16,9.35,13.05,5.16,10.69,5.17,21.41.04,32.11-2.38,4.98-5.68,9.31-9.5,13.27-4.84,5.01-10.34,9.19-16.24,12.86-10.27,6.39-21.31,11.05-32.8,14.71-10.16,3.23-20.53,5.6-31.07,7.26-8.64,1.36-17.32,2.35-26.06,2.73-4.91.21-9.83.39-14.74.59ZM87.46,14.83c-.25.04-1.06.13-1.86.28-9.58,1.81-18.96,4.34-28.12,7.67-8.49,3.09-16.65,6.85-24.24,11.78-4.36,2.83-8.44,6.03-12.05,9.79-2.66,2.77-5.01,5.78-6.81,9.18-4.89,9.24-4.8,18.47.2,27.64,2.06,3.79,4.78,7.08,7.86,10.08,3.93,3.84,8.33,7.05,13,9.91.54.33,1.11.64,1.7.87,1.75.69,3.01.31,3.95-1.3.69-1.17,1.23-2.43,1.78-3.68,5.93-13.4,12.42-26.52,19.68-39.25,7.72-13.54,16.19-26.57,26.35-38.44.41-.48.81-.99,1.14-1.53,1.02-1.66.43-2.85-1.47-3.03-.18-.02-.36,0-1.12,0ZM257.34,67.22c.11-4.48-1.06-8.74-3.08-12.79-1.88-3.78-4.41-7.11-7.34-10.14-4.26-4.43-9.16-8.04-14.39-11.24-.39-.24-.78-.47-1.2-.64-1.97-.81-3.33-.38-4.37,1.46-.63,1.11-1.13,2.28-1.65,3.44-7.63,17.15-16.09,33.88-25.98,49.85-6,9.69-12.51,19.02-19.93,27.7-.59.69-1.16,1.42-1.56,2.22-.59,1.17,0,2.28,1.34,2.32,1.53.05,3.11,0,4.6-.33,4.97-1.11,9.94-2.25,14.85-3.6,10.3-2.83,20.25-6.6,29.65-11.7,6.27-3.4,12.15-7.36,17.29-12.35,3.42-3.32,6.39-6.99,8.56-11.26,2.05-4.04,3.27-8.29,3.2-12.94ZM143.12,10.41c-3.46,0-6.92-.08-10.38.02-5.72.16-10.68,2.19-14.53,6.51-1.45,1.62-2.81,3.37-3.92,5.23-3.4,5.74-5.97,11.86-7.91,18.24-.82,2.71-1.18,5.5-.98,8.36.36,5.03,3.3,8.07,7.51,9.32,3,.89,6.07,1.08,9.19.81,4.65-.4,9.15-1.5,13.63-2.71,10.11-2.74,19.92-6.4,29.64-10.27,10.16-4.05,20.02-8.75,29.24-14.66,2.76-1.77,5.37-3.75,8.02-5.67.66-.48,1.27-1.05,1.78-1.69,1.05-1.32.84-2.62-.67-3.41-1.11-.59-2.34-.99-3.56-1.34-18.64-5.41-37.73-7.91-57.08-8.73ZM128.1,123.75c2.91,0,5.83.1,8.74-.02,5.24-.22,9.73-2.27,13.29-6.12,1.54-1.66,2.99-3.47,4.13-5.41,3.48-5.9,6.13-12.18,8.07-18.76.78-2.64,1.1-5.35.86-8.1-.36-4.18-2.44-7.16-6.36-8.77-.67-.28-1.37-.48-2.08-.65-3.69-.92-7.43-.81-11.12-.2-3.41.55-6.79,1.3-10.12,2.22-13.18,3.62-25.96,8.39-38.46,13.91-8.34,3.68-16.38,7.93-23.94,13.06-1.88,1.28-3.69,2.67-5.48,4.06-.64.5-1.21,1.11-1.67,1.77-.73,1.04-.49,2.11.56,2.84.52.36,1.11.64,1.7.85,1.11.4,2.25.74,3.38,1.06,10.52,3.02,21.24,5.07,32.09,6.41,8.77,1.08,17.57,1.84,26.42,1.85Z"/>
  <path class="st0" d="M863.44,115.05c0-1.13,0-2.12,0-3.12,0-24.13,0-48.26,0-72.39,0-2.19.06-4.36.56-6.51,1.74-7.45,7.56-12.79,15.18-13.73,1.98-.25,3.99-.37,5.99-.38,21.32-.03,42.63-.02,63.95,0,1.07,0,2.19-.22,3.33.38.07.56.2,1.18.22,1.8.4,14.59.18,91.26-.29,94.06-.37.08-.8.24-1.23.24-6.74.01-13.48.01-20.22,0-.35,0-.7-.1-1.11-.17-.48-.99-.31-2-.31-2.97-.02-7.74,0-15.48-.01-23.22,0-.99-.05-1.99-.07-3.12-.72-.14-1.31-.34-1.92-.36-1.73-.05-3.46-.02-5.19-.02-10.66,0-21.32,0-31.97,0-1.08,0-2.16.07-3.13.1-.74,1.1-.48,2.13-.49,3.1-.02,7.83,0,15.66-.02,23.49,0,.98.23,2.01-.34,2.92-2.39.4-20.4.37-22.93-.1ZM929.22,39.88c-1.02-.05-1.83-.12-2.64-.12-11.19,0-22.39,0-33.58,0-.73,0-1.46,0-2.18.1-2.05.3-3.65,1.9-4,3.93-.08.45-.09.91-.09,1.36,0,6,0,12.01,0,18.01,0,.43.11.86.18,1.43,1.03.05,1.91.13,2.8.14,4.1.01,8.19,0,12.29,0,8.1,0,16.2,0,24.3,0,.97,0,1.99.19,2.97-.34.07-.39.2-.73.2-1.08.01-7.37,0-14.74,0-22.11,0-.35-.13-.7-.25-1.33Z"/>
  <path class="st0" d="M753.42,115.42c-.16-.62-.29-.87-.29-1.13,0-31.41,0-62.83,0-94.24,0-.25.13-.51.19-.74.95-.62,1.98-.39,2.96-.39,6.01-.02,12.02-.01,18.04-.01,15.49,0,30.97,0,46.46,0,2.83,0,5.66.12,8.39.92,7.26,2.12,11.58,6.93,12.89,14.37.3,1.69.42,3.44.42,5.16.03,18.58.01,37.15.02,55.73,0,2.47-.21,4.91-.9,7.29-1.93,6.63-6.35,10.68-12.97,12.36-1.57.4-3.23.5-4.86.65-1.09.1-2.18.05-3.28.05-21.22,0-42.45,0-63.67,0h-3.4ZM776.57,94.56c1.02.06,1.91.15,2.8.15,11.11,0,22.23,0,33.34,0,.55,0,1.1.02,1.64-.03,2.69-.22,4.53-2.01,4.82-4.71.07-.63.04-1.27.04-1.91,0-13.93,0-27.86,0-41.8,0-.64.03-1.28-.04-1.91-.28-2.6-2-4.29-4.63-4.54-.72-.07-1.46-.05-2.18-.06-4.28,0-8.56,0-12.84,0-6.65,0-13.3,0-19.95,0-.97,0-1.98-.16-2.86.26-.46,2.77-.64,36.42-.3,52.52.01.61.1,1.23.17,2.01Z"/>
  <path class="st0" d="M642.13,18.91c1.05,0,1.95,0,2.86,0,21.59,0,43.17-.02,64.76.03,2.44,0,4.92.25,7.32.72,6.32,1.23,13.2,6.19,13.99,16.69.09,1.27.08,2.55.08,3.82,0,23.95,0,47.89,0,71.84v3.03c-.5.15-.83.34-1.16.35-6.92.02-13.84.03-20.77.02-.34,0-.69-.14-.98-.2-.59-1.03-.36-2.05-.36-3.03-.02-12.56-.01-25.13-.01-37.69,0-9.29,0-18.57,0-27.86,0-.82.03-1.64-.06-2.46-.24-2.37-1.85-4.03-4.19-4.32-.72-.09-1.45-.08-2.18-.08-11.11,0-22.22,0-33.34,0-.89,0-1.82-.19-2.79.37-.07.35-.21.77-.24,1.21-.04.91-.03,1.82-.03,2.73,0,22.58,0,45.16,0,67.74,0,1.08-.05,2.15-.08,3.34-2.67.5-5.21.2-7.72.25-2.46.05-4.92.01-7.38.01h-7.75c-.14-.78-.29-1.37-.34-1.97-.05-.63-.02-1.27-.02-1.91,0-29.59,0-59.18,0-88.77,0-1.16-.17-2.35.38-3.86Z"/>
  <path class="st0" d="M340.93,115.41c-7.84.01-15.29.02-22.86,0-.13-.68-.29-1.19-.32-1.7-.05-.73-.02-1.46-.02-2.19,0-29.6,0-59.2,0-88.81,0-1.16-.22-2.36.29-3.48.3-.1.55-.27.8-.27,6.92-.03,13.85-.04,20.77-.04.35,0,.69.13,1.07.21.57.97.38,1.99.38,2.97.02,6.28,0,12.57,0,18.85,0,3.92,0,7.83,0,11.75,0,.9.05,1.79.07,2.59,1.19.77,2.31.5,3.38.51,11.48.02,22.96.01,34.44.01,1,0,2,.01,3.01-.01.45-.01.9-.09,1.28-.14.79-.82.57-1.77.58-2.66.02-4.28.01-8.56.01-12.84,0-5.92,0-11.84,0-17.76,0-.99.05-1.98.08-3.08.52-.15.94-.38,1.35-.38,6.74-.02,13.49-.03,20.23-.01.43,0,.86.18,1.26.27.47,2.51.68,66.2.31,93.5-.01.8-.12,1.59-.19,2.54-2.02.31-3.92.14-5.81.17-1.91.03-3.83,0-5.74,0s-3.64.02-5.47,0c-1.89-.02-3.79.12-5.72-.15-.44-1.19-.31-2.29-.31-3.36-.01-10.57,0-21.13-.01-31.7,0-1.08-.07-2.15-.11-3.26-1.09-.56-2.1-.38-3.07-.38-7.75-.02-15.49,0-23.24,0-4.37,0-8.75,0-13.12,0h-2.83c-.16.66-.34,1.16-.38,1.66-.06.82-.03,1.64-.03,2.46,0,10.38,0,20.77,0,31.15,0,1.08-.07,2.15-.12,3.57Z"/>
  <path class="st0" d="M530.79,19.17c.51-.08,1.03-.23,1.56-.25,6.63-.27,18.89-.1,21.16.3.09.45.24.95.27,1.47.05.82.02,1.64.02,2.46,0,22.68,0,45.35,0,68.03,0,1.07-.12,2.16.26,3.34.57.07,1.09.18,1.62.18,11.75.01,23.51,0,35.26,0,.27,0,.55,0,.82-.02,2.72-.23,4.54-1.98,4.82-4.7.09-.9.04-1.82.04-2.73,0-21.58,0-43.17,0-64.75,0-1.08-.12-2.18.22-3.35.65-.09,1.26-.22,1.88-.24,8.7-.25,18.51-.12,20.87.3.09.46.23.97.28,1.49.05.54.02,1.09.02,1.64,0,23.95,0,47.9,0,71.85,0,2.64-.13,5.28-.83,7.85-1.84,6.77-6.26,10.94-12.99,12.66-1.57.4-3.23.5-4.86.65-1.09.1-2.18.05-3.28.05-21.23,0-42.46,0-63.68,0h-3.37c-.14-.66-.29-1.16-.33-1.67-.05-.63-.02-1.27-.02-1.91,0-29.78,0-59.56,0-89.34,0-1.07-.18-2.17.26-3.33Z"/>
  <path class="st0" d="M468.69,57.16c.84-1.25,1.4-2.06,1.94-2.9,7.03-10.96,14.06-21.92,21.1-32.87,1.77-2.76,1.24-2.47,4.55-2.48,7.11-.01,14.21,0,21.32,0,.88,0,1.8-.14,2.76.28-.22,1.12-.9,1.87-1.42,2.68-8.3,12.96-16.62,25.9-24.93,38.85-4.13,6.44-8.22,12.9-12.41,19.3-.95,1.45-1.35,2.89-1.34,4.59.05,9.02.02,18.03.02,27.05v3.35c-.56.16-.97.38-1.39.38-6.83.02-13.67.01-20.5,0-.26,0-.53-.09-.95-.17-.11-.46-.28-.96-.32-1.47-.06-.82-.03-1.64-.03-2.46,0-8.74-.04-17.49.03-26.23.01-1.98-.43-3.67-1.53-5.37-12.4-19.2-24.73-38.44-37.07-57.68-.54-.84-1.04-1.7-1.67-2.74.68-.15,1.17-.35,1.67-.35,7.93-.02,15.85.01,23.78-.04,1.38,0,2.16.55,2.84,1.66,1.57,2.56,3.23,5.07,4.85,7.6,5.6,8.74,11.2,17.48,16.81,26.22.53.82,1.1,1.62,1.91,2.8Z"/>
  <path class="st0" d="M975.96,19.3c.31-.13.56-.33.8-.33,7.01-.02,14.02-.03,21.03-.02.34,0,.68.19.99.28.4,2.92.57,75.5.23,93.98-.01.62-.09,1.23-.12,1.68-.23.22-.28.3-.36.35-.08.04-.17.07-.26.07-7.01.03-14.02.06-21.03.08-.36,0-.72-.08-1.2-.14-.11-.51-.26-1.02-.31-1.53-.05-.63-.02-1.27-.02-1.91,0-29.76,0-59.53,0-89.29,0-1.07-.18-2.17.24-3.21Z"/>
</svg>